# xmcd CD database file
#
# Track frame offsets:
#	150
#	27096
#	51574
#	78156
#	102182
#	124883
#	135421
#	145641
#	155861
#	182923
#
# Disc length: 2764 seconds
#
# Revision: 2
# Processed by: cddbd v1.5.1PL2 Copyright (c) Steve Scherf et al.
# Submitted via: CDex 1.60beta1
#
DISCID=850aca0a
DTITLE=Various Artist - 幼なじみ 初回特典 Music CD
DYEAR=2000
DGENRE=Game
TTITLE0=安藤夏 - time cupsule 〜夢色の玉手箱〜
TTITLE1=安藤夏 - かわらない瞳
TTITLE2=安藤夏 - time cupsule 〜夢色の玉手箱〜 Acoustic Ver.
TTITLE3=安藤夏 - かわらない瞳 Acoustic Ver.
TTITLE4=安藤夏 - time cupsule 〜夢色の玉手箱〜 DJ Tomazo UG MIX
TTITLE5=安藤夏 - time cupsule 〜夢色の玉手箱〜 TVsize
TTITLE6=安藤夏 - かわらない瞳 TVsize
TTITLE7=安藤夏 - かわらない瞳 TVsize2
TTITLE8=荒川憲一 - time cupsule 〜夢色の玉手箱〜 カラオケ Ver.
TTITLE9=荒川憲一 - かわらない瞳 カラオケ Ver.
EXTD=YEAR: 2000
EXTT0=
EXTT1=
EXTT2=
EXTT3=
EXTT4=
EXTT5=
EXTT6=
EXTT7=
EXTT8=
EXTT9=
PLAYORDER=
